<svg width="20" height="19" viewBox="0 0 20 19" fill="none" xmlns="http://www.w3.org/2000/svg">
<path d="M2 2.96648C2.14 2.90339 2.308 2.83354 2.503 2.76256C3.4724 2.41823 4.48357 2.24642 5.5 2.25335C6.51643 2.24642 7.52759 2.41823 8.497 2.76256C8.692 2.83354 8.86 2.90339 9 2.96648V15.2237C7.86568 14.8343 6.6858 14.6394 5.5 14.6457C4.04 14.6457 2.851 14.9251 2 15.2237V2.96648ZM10 0.997214C9.70996 0.853626 9.41357 0.726906 9.112 0.617556C7.94386 0.201211 6.72518 -0.00708644 5.5 0.000190136C3.974 0.000190136 2.745 0.305493 1.888 0.617556C1.5468 0.740774 1.21252 0.887121 0.887 1.0558C0.766002 1.11883 0.646934 1.18646 0.53 1.25858L0.505 1.27435L0.496 1.27999L0.493 1.28224C0.491 1.28449 0.245 1.44785 0.49 1.28449C0.340723 1.3842 0.217048 1.52596 0.131136 1.69583C0.0452231 1.8657 3.02676e-05 2.05784 0 2.25335V16.8989C3.07809e-05 17.0977 0.0467776 17.293 0.135492 17.4649C0.224207 17.6368 0.351728 17.7792 0.505101 17.8776C0.658474 17.976 0.832236 18.027 1.00873 18.0252C1.18523 18.0235 1.35818 17.9692 1.51 17.8678L1.505 17.8711L1.508 17.87L1.509 17.8689L1.546 17.8463C1.583 17.8238 1.644 17.79 1.728 17.745C1.898 17.6571 2.158 17.5332 2.503 17.407C3.47246 17.063 4.48362 16.8916 5.5 16.8989C6.51638 16.8916 7.52754 17.063 8.497 17.407C8.76113 17.502 9.01993 17.6149 9.272 17.745C9.34749 17.7844 9.42186 17.8265 9.495 17.8711M9.495 17.8711L9.492 17.87L9.491 17.8689C9.805 18.0773 10.195 18.0773 10.509 17.8689L10.546 17.8463C10.583 17.8238 10.644 17.79 10.728 17.745C10.9801 17.6149 11.2389 17.502 11.503 17.407C12.4725 17.063 13.4836 16.8916 14.5 16.8989C15.5164 16.8916 16.5275 17.063 17.497 17.407C17.7611 17.502 18.0199 17.6149 18.272 17.745C18.3461 17.7837 18.4191 17.825 18.491 17.8689C18.6429 17.9701 18.8158 18.0242 18.9922 18.0257C19.1687 18.0272 19.3423 17.9762 19.4956 17.8777C19.6488 17.7791 19.7762 17.6367 19.8648 17.4648C19.9534 17.2929 20 17.0977 20 16.8989V2.25335C20 2.05784 19.9548 1.8657 19.8689 1.69583C19.783 1.52596 19.6593 1.3842 19.51 1.28449L19.508 1.28336L19.504 1.27999L19.494 1.27435L19.47 1.25858C19.3531 1.18645 19.234 1.11881 19.113 1.0558C18.7878 0.887183 18.4539 0.740837 18.113 0.617556C16.9445 0.201095 15.7255 -0.00720381 14.5 0.000190136C12.975 0.000190136 11.745 0.305493 10.888 0.617556C10.5863 0.726631 10.2899 0.853356 10 0.997214M18 2.96648V15.2237C16.8657 14.8343 15.6858 14.6394 14.5 14.6457C13.04 14.6457 11.851 14.9251 11 15.2237V2.96648C11.14 2.90339 11.308 2.83354 11.503 2.76256C12.4724 2.41823 13.4836 2.24642 14.5 2.25335C15.5164 2.24642 16.5276 2.41823 17.497 2.76256C17.692 2.83354 17.86 2.90339 18 2.96648ZM18.49 3.22334L18.495 3.22559H18.494L18.49 3.22334ZM18.491 17.8689L18.494 17.8711L18.492 17.8689" fill="#B1A3FD"/>
</svg>
