<svg width="19" height="18" viewBox="0 0 19 18" fill="none" xmlns="http://www.w3.org/2000/svg">
<path d="M9.5 1.8C8.3802 1.8 7.30626 2.17928 6.51444 2.85442C5.72262 3.52955 5.27778 4.44522 5.27778 5.4C5.27778 6.35478 5.72262 7.27045 6.51444 7.94558C7.30626 8.62072 8.3802 9 9.5 9C10.6198 9 11.6937 8.62072 12.4856 7.94558C13.2774 7.27045 13.7222 6.35478 13.7222 5.4C13.7222 4.44522 13.2774 3.52955 12.4856 2.85442C11.6937 2.17928 10.6198 1.8 9.5 1.8ZM3.16667 5.4C3.16667 3.96783 3.83393 2.59432 5.02166 1.58162C6.20939 0.568927 7.8203 0 9.5 0C11.1797 0 12.7906 0.568927 13.9783 1.58162C15.1661 2.59432 15.8333 3.96783 15.8333 5.4C15.8333 6.83217 15.1661 8.20568 13.9783 9.21838C12.7906 10.2311 11.1797 10.8 9.5 10.8C7.8203 10.8 6.20939 10.2311 5.02166 9.21838C3.83393 8.20568 3.16667 6.83217 3.16667 5.4ZM5.27778 14.4C4.43793 14.4 3.63247 14.6845 3.03861 15.1908C2.44474 15.6972 2.11111 16.3839 2.11111 17.1C2.11111 17.3387 1.9999 17.5676 1.80195 17.7364C1.60399 17.9052 1.33551 18 1.05556 18C0.775605 18 0.50712 17.9052 0.309165 17.7364C0.11121 17.5676 0 17.3387 0 17.1C0 15.9065 0.55605 14.7619 1.54583 13.918C2.5356 13.0741 3.87802 12.6 5.27778 12.6H13.7222C15.122 12.6 16.4644 13.0741 17.4542 13.918C18.444 14.7619 19 15.9065 19 17.1C19 17.3387 18.8888 17.5676 18.6908 17.7364C18.4929 17.9052 18.2244 18 17.9444 18C17.6645 18 17.396 17.9052 17.1981 17.7364C17.0001 17.5676 16.8889 17.3387 16.8889 17.1C16.8889 16.3839 16.5553 15.6972 15.9614 15.1908C15.3675 14.6845 14.5621 14.4 13.7222 14.4H5.27778Z" fill="#B1A3FD"/>
</svg>
