<svg width="20" height="18" viewBox="0 0 20 18" fill="none" xmlns="http://www.w3.org/2000/svg">
<path d="M10 6.98681C10.8284 6.98681 11.5 6.34697 11.5 5.55769C11.5 4.76841 10.8284 4.12857 10 4.12857C9.17157 4.12857 8.5 4.76841 8.5 5.55769C8.5 6.34697 9.17157 6.98681 10 6.98681Z" fill="#343E3D"/>
<path d="M16 0V2.22307H4V0H0V5.71648H4V3.4934H5.05325L5.36675 7.07768L8.66675 8.64971V12.7033H5.36933L5.06046 18H6.39583L6.63067 13.9736H13.3693L13.6042 18H14.9396L14.6307 12.7033H11.3333V8.64971L14.6333 7.07768L14.9467 3.4934H16V5.71648H20V0H16ZM2.66667 2.22307V4.44615H1.33333V1.27033H2.66667V2.22307ZM13.3667 6.26074L10 7.86452L6.63333 6.26074L6.39121 3.4934H13.6088L13.3667 6.26074ZM18.6667 4.44615H17.3333V1.27033H18.6667V4.44615Z" fill="#B1A3FD"/>
</svg>
